<svg xmlns="http://www.w3.org/2000/svg" viewBox="0 0 200 44.034"><defs><style>.cls-1 { fill: #e4007f; } .cls-2 { fill: #0075bf; }</style></defs><g id="グループ化_292"><path id="合体_5" class="cls-1" d="M-5648-2231.057c0-7.248 5.83-13.944 16.542-13.944a51.968 51.968 0 0 1 7.326.788l-.709 4.017a20.147 20.147 0 0 0-6.695-1.1c-7.09 0-10.162 4.1-10.162 10.241 0 6.223 3.151 10.082 10.24 10.082a21.671 21.671 0 0 0 6.932-1.1l.63 3.781a49.43 49.43 0 0 1-7.562 1.182c-11.658-.005-16.542-5.204-16.542-13.947zm181.095 13.627v-27.334l18.9.08v3.623h-13.785v7.72h11.422v3.466h-11.422v8.822h13.79v3.625zm-27.333 0v-27.334h5.12v12.972l11.107-12.972h6.38l-12.051 13.156 12.839 14.1h-7.09l-11.185-13.9v13.983zm-8.822 0l-2.206-5.908h-13.313l-2.285 5.908h-5.12l11.265-27.334h6.065l11.265 27.334zm-14.021-9.847h10.319l-5.12-13.548zm-16.384 9.847l-3.072-21.506-5.279 14.416h-4.332l-5.277-14.416-3.073 21.506h-4.883l3.86-27.334h6.143l5.436 14.73 5.356-14.73h6.145l3.858 27.334zm-37.652 0l-12.682-21.506v21.506h-4.647v-27.334h6.774l12.445 21.268v-21.268h4.648v27.334zm-26.231 0l-2.363-5.908h-13.313l-2.283 5.908h-5.042l11.342-27.334h6.065l11.265 27.334zm-14.1-9.847h10.319l-5.12-13.548z" transform="translate(0 .001) translate(5648 2245)"/><path id="合体_3" class="cls-2" d="M-5608.772-2234.917a6.017 6.017 0 0 1-1.5-.945 4.478 4.478 0 0 1-1.181-1.654 5.378 5.378 0 0 1-.473-2.285 5.911 5.911 0 0 1 .394-2.048 4.727 4.727 0 0 1 1.1-1.654 3.817 3.817 0 0 1 1.576-1.1 5.5 5.5 0 0 1 1.969-.394 5.011 5.011 0 0 1 1.891.316 3.725 3.725 0 0 1 1.5.945 5.007 5.007 0 0 1 1.1 1.732 4.213 4.213 0 0 1 .315 2.206 5.016 5.016 0 0 1-.394 2.206 4.353 4.353 0 0 1-1.1 1.654 4.9 4.9 0 0 1-1.576 1.025 4.635 4.635 0 0 1-1.812.315 4.64 4.64 0 0 1-1.809-.319zm.551-8.822a3.277 3.277 0 0 0-1.1.709 4.476 4.476 0 0 0-.946 1.417 4.622 4.622 0 0 0-.314 1.812 4.768 4.768 0 0 0 .314 1.891 4.683 4.683 0 0 0 1.025 1.417 4.437 4.437 0 0 0 1.023.631 3.273 3.273 0 0 0 1.26.235 3.268 3.268 0 0 0 1.26-.235 3.32 3.32 0 0 0 1.1-.709 3.442 3.442 0 0 0 .944-1.34 3.4 3.4 0 0 0 .316-1.734 5.281 5.281 0 0 0-.316-1.889 3.665 3.665 0 0 0-1.023-1.576 4.443 4.443 0 0 0-1.025-.629 3.241 3.241 0 0 0-1.26-.237 3.246 3.246 0 0 0-1.258.237zm-28.357 8.822a6.008 6.008 0 0 1-1.5-.945 4.467 4.467 0 0 1-1.181-1.654 5.378 5.378 0 0 1-.474-2.285 5.922 5.922 0 0 1 .394-2.048 4.721 4.721 0 0 1 1.1-1.654 3.813 3.813 0 0 1 1.576-1.1 5.5 5.5 0 0 1 1.969-.394 5.01 5.01 0 0 1 1.89.316 3.724 3.724 0 0 1 1.5.945 4.993 4.993 0 0 1 1.1 1.732 4.2 4.2 0 0 1 .316 2.206 5.009 5.009 0 0 1-.394 2.206 4.352 4.352 0 0 1-1.1 1.654 4.93 4.93 0 0 1-1.576 1.025 4.634 4.634 0 0 1-1.812.315 4.64 4.64 0 0 1-1.808-.319zm.551-8.822a3.283 3.283 0 0 0-1.1.709 4.474 4.474 0 0 0-.945 1.417 4.64 4.64 0 0 0-.314 1.812 4.786 4.786 0 0 0 .314 1.891 4.683 4.683 0 0 0 1.025 1.417 4.427 4.427 0 0 0 1.023.631 3.273 3.273 0 0 0 1.26.235 3.274 3.274 0 0 0 1.261-.235 3.315 3.315 0 0 0 1.1-.709 3.42 3.42 0 0 0 .945-1.34 3.385 3.385 0 0 0 .315-1.734 5.279 5.279 0 0 0-.315-1.889 3.652 3.652 0 0 0-1.023-1.576 4.485 4.485 0 0 0-1.023-.629 3.248 3.248 0 0 0-1.261-.237 3.246 3.246 0 0 0-1.262.237zm19.378 8.822v-4.176l-3.308-5.751h1.417l2.52 4.413 2.6-4.413h1.339l-3.308 5.593v4.333zm-5.042 0l-3.78-4.411-.945 1.023v3.388h-1.26v-9.927h1.26v5.2l4.648-5.2h1.5l-4.255 4.648 4.411 5.279zm-23 0v-8.744h-3.309v-1.182h7.956v1.182h-3.388v8.744z" transform="translate(0 .001) translate(5725.196 2278.635)"/></g></svg>