<?xml version="1.0" encoding="utf-8"?>
<!-- Generator: Adobe Illustrator 25.1.0, SVG Export Plug-In . SVG Version: 6.00 Build 0)  -->
<svg version="1.1" id="Layer_1" xmlns="http://www.w3.org/2000/svg" xmlns:xlink="http://www.w3.org/1999/xlink" x="0px" y="0px"
	 viewBox="0 0 116.9 116.9" style="enable-background:new 0 0 116.9 116.9;" xml:space="preserve">
<style type="text/css">
	.st0{fill:#FFFFFF;}
</style>
<path class="st0" d="M103.1,34.7H31.8L25.2,7.8c0-0.1,0-0.1,0-0.1c0-0.1,0-0.2-0.1-0.2c0-0.1-0.1-0.1-0.1-0.2c0-0.1-0.1-0.1-0.1-0.2
	s-0.1-0.1-0.1-0.2c0-0.1-0.1-0.1-0.1-0.1c0-0.1-0.1-0.1-0.1-0.1l-0.1-0.1c0,0-0.1-0.1-0.2-0.1S24,6.1,23.9,6.1c-0.1,0-0.1,0-0.2-0.1
	c-0.1,0-0.1,0-0.2-0.1c-0.1,0-0.1,0-0.2,0h-0.1H7.4C6.1,6,5,7.1,5,8.4s1.1,2.4,2.4,2.4H21l16.3,66.9c1.1,4.3,4.9,7.3,9.3,7.3h5v5
	c-4.8,1.1-8.4,5.4-8.4,10.5c0,6,4.8,10.8,10.8,10.8s10.8-4.8,10.8-10.8c0-5.1-3.6-9.5-8.4-10.5v-5h38.3v5c-4.8,1.1-8.4,5.4-8.4,10.5
	c0,6,4.8,10.8,10.8,10.8s10.8-4.8,10.8-10.8c0-5.1-3.6-9.5-8.4-10.5v-5h3.6c5.3,0,9.6-4.3,9.6-9.6V44.3
	C112.7,39,108.4,34.7,103.1,34.7z M60,100.5c0,3.3-2.6,6-6,6s-6-2.6-6-6c0-3.3,2.6-6,6-6S60,97.2,60,100.5z M103.1,100.5
	c0,3.3-2.6,6-6,6c-3.3,0-6-2.6-6-6c0-3.3,2.6-6,6-6C100.5,94.5,103.1,97.2,103.1,100.5z M107.9,75.4c0,2.6-2.2,4.8-4.8,4.8H46.5
	c-2.2,0-4.2-1.6-4.7-3.7l-8.9-37h70.1c2.6,0,4.8,2.2,4.8,4.8V75.4z"/>
</svg>
