<?xml version="1.0" encoding="UTF-8"?>
<svg version="1.1" xmlns="http://www.w3.org/2000/svg" width="1178" height="385">
<path d="M0 0 C7.59 0 15.18 0 23 0 C28.97651518 6.94943626 28.97651518 6.94943626 30.515625 10.68359375 C33.17550527 16.61357554 36.58981376 22.03169004 40.02157593 27.53442383 C41.87404462 30.51952314 43.68902132 33.52710766 45.50390625 36.53515625 C45.87066971 37.14235504 46.23743317 37.74955383 46.61531067 38.37515259 C53.14960683 49.20660054 59.57681258 60.10242363 66 71 C68.92402172 68.41175111 70.6432048 65.43135768 72.58984375 62.06640625 C72.93039291 61.48115173 73.27094208 60.89589722 73.62181091 60.29290771 C74.35174439 59.03746805 75.07961213 57.78082548 75.80560303 56.52310181 C77.33275672 53.87786081 78.87025051 51.23868874 80.4074707 48.59928894 C81.18024205 47.27242614 81.95254014 45.9452876 82.72436523 44.61787415 C87.72424151 36.02336258 92.84670131 27.50320856 98 19 C98.51385254 18.15179688 99.02770508 17.30359375 99.55712891 16.4296875 C101.0980776 13.88908923 102.64195844 11.35030649 104.1875 8.8125 C104.65784668 8.0388208 105.12819336 7.2651416 105.61279297 6.46801758 C108.88167724 1.11832276 108.88167724 1.11832276 110 0 C117.59 0 125.18 0 133 0 C133 38.94 133 77.88 133 118 C124.42 118 115.84 118 107 118 C106.67 95.89 106.34 73.78 106 51 C95.80994552 67.87709214 95.80994552 67.87709214 86.0546875 85.00390625 C83.91796875 88.86132813 83.91796875 88.86132813 82.89208984 90.70336914 C82.19430342 91.97884769 81.51345314 93.2636948 80.84716797 94.5559082 C75.31358291 105.21592926 75.31358291 105.21592926 69.75390625 107.10009766 C65.35717175 107.38578581 61.75438339 107.28393294 58.11083984 104.61743164 C56.51597528 102.59024427 55.40014564 100.55869331 54.25 98.25 C53.27731927 96.52011434 52.30327127 94.79099702 51.328125 93.0625 C50.80927734 92.10472656 50.29042969 91.14695312 49.75585938 90.16015625 C47.79533538 86.63164922 45.7221874 83.18866134 43.609375 79.75 C43.22879944 79.13034363 42.84822388 78.51068726 42.45611572 77.87225342 C41.68572548 76.6190121 40.91499425 75.36598033 40.1439209 74.11315918 C38.31236379 71.13001372 36.49832007 68.1363903 34.6875 65.140625 C33.76517578 63.61743652 33.76517578 63.61743652 32.82421875 62.06347656 C30.84124096 58.7333902 28.92292572 55.36512002 27 52 C26.67 73.78 26.34 95.56 26 118 C17.42 118 8.84 118 0 118 C0 79.06 0 40.12 0 0 Z " fill="#C61E85" transform="translate(608,91)"/>
<path d="M0 0 C24 0 24 0 30.5 5.875 C32.8984375 9.484375 32.8984375 9.484375 33.96777344 11.29882812 C35.46317399 13.76333879 37.27928561 15.91584378 39.125 18.125 C39.75792969 18.92292969 40.39085937 19.72085938 41.04296875 20.54296875 C44.64704061 25.0678414 48.33038895 29.52825366 52 34 C55.0033308 37.66395255 58.00276915 41.33105589 61 45 C61.51675293 45.63164062 62.03350586 46.26328125 62.56591797 46.9140625 C64.27479055 49.00384333 65.98132328 51.09551782 67.6875 53.1875 C68.22213867 53.84065186 68.75677734 54.49380371 69.30761719 55.16674805 C73.00009802 59.70014172 76.48548081 64.31397441 80 69 C80.33 46.23 80.66 23.46 81 0 C90.24 0 99.48 0 109 0 C109 38.94 109 77.88 109 118 C85 118 85 118 80.375 114.0625 C79.23973963 112.04741284 78.11627996 110.0256632 77 108 C74.89081591 105.22879865 72.62851843 102.59181198 70.375 99.9375 C69.15148008 98.45882062 67.93015271 96.9783245 66.7109375 95.49609375 C66.09573242 94.75085449 65.48052734 94.00561523 64.84667969 93.23779297 C61.31696861 88.96051485 57.79279952 84.67866864 54.26904297 80.39648438 C51.25760659 76.73774571 48.24176068 73.08277732 45.21875 69.43359375 C44.59613281 68.68078125 43.97351563 67.92796875 43.33203125 67.15234375 C42.15382254 65.72794218 40.97424604 64.30467029 39.79296875 62.8828125 C39.25285156 62.22925781 38.71273437 61.57570312 38.15625 60.90234375 C37.45725586 60.05917603 37.45725586 60.05917603 36.74414062 59.19897461 C34.0915188 55.85460664 31.56117783 52.41490378 29 49 C28.67 71.77 28.34 94.54 28 118 C18.76 118 9.52 118 0 118 C0 79.06 0 40.12 0 0 Z " fill="#C62086" transform="translate(319,91)"/>
<path d="M0 0 C8.91 0 17.82 0 27 0 C27.495 26.235 27.495 26.235 28 53 C38.01577348 43.14713139 38.01577348 43.14713139 47.296875 32.921875 C50.23743182 29.60363199 53.44483864 26.54848273 56.59765625 23.43359375 C58.63714373 21.36757635 60.555078 19.26994451 62.4375 17.0625 C65.86239608 13.04625496 69.58061117 9.36194408 73.35717773 5.67993164 C76.01987761 3.10099774 76.01987761 3.10099774 78 0 C88.56 0 99.12 0 110 0 C103.25170068 7.87301587 103.25170068 7.87301587 100.84375 10.4375 C100.30347168 11.0145166 99.76319336 11.5915332 99.20654297 12.18603516 C98.3618042 13.08394775 98.3618042 13.08394775 97.5 14 C96.26299445 15.32028778 95.02601606 16.64060101 93.7890625 17.9609375 C93.16161133 18.62963867 92.53416016 19.29833984 91.88769531 19.98730469 C87.15096703 25.03769113 82.42810326 30.10106261 77.70800781 35.16699219 C76.5567903 36.40246119 75.40508718 37.63747785 74.25292969 38.87207031 C72.58304666 40.66264506 70.91611408 42.45591861 69.25 44.25 C68.74839355 44.78705566 68.24678711 45.32411133 67.72998047 45.87744141 C65.60142948 48.17503092 63.74262141 50.38606789 62 53 C63.21623047 54.48886719 63.21623047 54.48886719 64.45703125 56.0078125 C71.27504319 64.36811719 78.0173505 72.77988709 84.65722656 81.28222656 C86.47465755 83.60721645 88.29815728 85.92740809 90.12207031 88.24731445 C91.03585374 89.40961977 91.94926925 90.57221444 92.86230469 91.73510742 C95.22368572 94.74261437 97.58916475 97.74677325 99.9609375 100.74609375 C100.44884766 101.36419922 100.93675781 101.98230469 101.43945312 102.61914062 C102.36132204 103.78684125 103.28439667 104.95359156 104.20898438 106.11914062 C107.26601143 109.9950973 110.15434384 113.9661039 113 118 C82.00500927 120.42564857 82.00500927 120.42564857 75.41796875 115.234375 C72.75662916 112.39337198 70.77999512 109.21175434 68.96777344 105.77734375 C67.62082897 103.3036415 65.88593538 101.26332582 64.0625 99.125 C63.45148437 98.3515625 62.84046875 97.578125 62.2109375 96.78125 C58.67402012 92.33198291 55.07297846 87.93477173 51.47875977 83.53173828 C48.92495249 80.39680445 46.38654141 77.2657935 44 74 C39.97492612 75.60620526 37.28210481 78.45566341 34.3125 81.5 C33.56516602 82.24830078 33.56516602 82.24830078 32.80273438 83.01171875 C28.46262391 87.40482921 27.8703143 89.40395858 27.68359375 95.5390625 C27.64169922 96.84101563 27.59980469 98.14296875 27.55664062 99.484375 C27.51682701 100.86458045 27.47711478 102.24478883 27.4375 103.625 C27.39430593 105.01303415 27.35069135 106.40105528 27.30664062 107.7890625 C27.20028066 111.19258129 27.09961082 114.596277 27 118 C18.09 118 9.18 118 0 118 C0 79.06 0 40.12 0 0 Z " fill="#C51D84" transform="translate(898,91)"/>
<path d="M0 0 C29.7 0 59.4 0 90 0 C90 7.26 90 14.52 90 22 C69.54 22 49.08 22 28 22 C28 30.25 28 38.5 28 47 C46.15 47 64.3 47 83 47 C83 54.26 83 61.52 83 69 C64.85 69 46.7 69 28 69 C28 77.91 28 86.82 28 96 C49.12 96 70.24 96 92 96 C92 103.26 92 110.52 92 118 C61.64 118 31.28 118 0 118 C0 79.06 0 40.12 0 0 Z " fill="#C61E85" transform="translate(1022,91)"/>
<path d="M0 0 C9.57 0 19.14 0 29 0 C29.94617188 2.1346875 30.89234375 4.269375 31.8671875 6.46875 C38.82987956 22.16707327 45.81994802 37.85245503 52.87701416 53.50860596 C58.9185056 66.91192348 64.95214742 80.31873602 70.93896484 93.74658203 C71.63882208 95.31538304 72.33964729 96.88375262 73.04150391 98.45166016 C74.00959425 100.61499314 74.97403469 102.77991652 75.9375 104.9453125 C76.36119873 105.88940475 76.36119873 105.88940475 76.79345703 106.85256958 C78.430264 110.54460547 79.71426927 114.14280781 81 118 C71.43 118 61.86 118 52 118 C46.26829268 106.53658537 46.26829268 106.53658537 44.1875 101.5625 C43.55908203 100.07943359 43.55908203 100.07943359 42.91796875 98.56640625 C42 96 42 96 42 93 C23.85 93 5.7 93 -13 93 C-13.99 95.97 -14.98 98.94 -16 102 C-16.58061084 103.47077506 -17.18089441 104.93446102 -17.82421875 106.37890625 C-18.10096436 107.00611572 -18.37770996 107.6333252 -18.6628418 108.27954102 C-19.000979 109.03291748 -19.33911621 109.78629395 -19.6875 110.5625 C-21.3271875 114.2440625 -21.3271875 114.2440625 -23 118 C-32.57 118 -42.14 118 -52 118 C-46.37288044 104.66164252 -40.52246685 91.44176094 -34.5625 78.25 C-28.06581384 63.86796808 -21.64645776 49.45447198 -15.3125 35 C-14.94295197 34.15667114 -14.57340393 33.31334229 -14.19265747 32.44445801 C-12.12320673 27.72000821 -10.0565239 22.99435298 -7.99127197 18.26806641 C-6.32214579 14.44904486 -4.65120528 10.63081725 -2.98046875 6.8125 C-1.99691406 4.564375 -1.01335938 2.31625 0 0 Z M14 28 C12.39582267 31.69248775 10.79705617 35.38727238 9.20263672 39.08398438 C8.4020643 40.93734495 7.59758421 42.78901608 6.79296875 44.640625 C2.89531126 53.68703993 -0.53156139 62.75083038 -4 72 C8.21 72 20.42 72 33 72 C27.14035929 57.26951433 21.22169213 42.58100474 15 28 C14.67 28 14.34 28 14 28 Z " fill="#C61E85" transform="translate(805,91)"/>
<path d="M0 0 C1.16781006 0.00523682 2.33562012 0.01047363 3.53881836 0.01586914 C4.79887695 0.0190918 6.05893555 0.02231445 7.35717773 0.02563477 C8.6976732 0.03399136 10.03816799 0.04245632 11.37866211 0.05102539 C12.72306153 0.05603879 14.06746271 0.06060197 15.41186523 0.06469727 C18.71334151 0.07653051 22.01473014 0.09301568 25.31616211 0.11352539 C34.16549661 19.27856162 42.85890464 38.50319759 51.30383301 57.85009766 C55.63425248 67.76997211 59.99918705 77.67190553 64.45678711 87.53540039 C65.08660995 88.92949883 65.08660995 88.92949883 65.72915649 90.35176086 C67.75723375 94.83717916 69.79100785 99.31992963 71.83129883 103.79980469 C72.55809048 105.40304607 73.28481927 107.00631597 74.01147461 108.60961914 C74.34802063 109.34400208 74.68456665 110.07838501 75.03131104 110.83502197 C77.31616211 115.88727227 77.31616211 115.88727227 77.31616211 118.11352539 C67.74616211 118.11352539 58.17616211 118.11352539 48.31616211 118.11352539 C38.31616211 96.44685872 38.31616211 96.44685872 38.31616211 93.11352539 C20.16616211 93.11352539 2.01616211 93.11352539 -16.68383789 93.11352539 C-17.67383789 96.08352539 -18.66383789 99.05352539 -19.68383789 102.11352539 C-20.70377369 104.79275973 -21.73621063 107.45621264 -22.80883789 110.11352539 C-23.0730957 110.7799707 -23.33735352 111.44641602 -23.60961914 112.13305664 C-25.55700434 116.98669184 -25.55700434 116.98669184 -26.68383789 118.11352539 C-28.75645866 118.20119651 -30.83204083 118.22048412 -32.90649414 118.21118164 C-34.79658203 118.20634766 -34.79658203 118.20634766 -36.72485352 118.20141602 C-38.06534898 118.19305942 -39.40584377 118.18459446 -40.74633789 118.17602539 C-42.09073731 118.17101199 -43.43513849 118.16644881 -44.77954102 118.16235352 C-48.0810173 118.15052027 -51.38240592 118.1340351 -54.68383789 118.11352539 C-52.72757587 111.87829753 -50.40414588 105.92751298 -47.71899414 99.97290039 C-47.33345871 99.1086293 -46.94792328 98.24435822 -46.55070496 97.35389709 C-45.28645222 94.52202566 -44.01638242 91.6928034 -42.74633789 88.86352539 C-41.85689642 86.8737336 -40.96790659 84.88373987 -40.0793457 82.89355469 C-38.22479761 78.74067698 -36.36829023 74.58868326 -34.51049805 70.43725586 C-30.39452563 61.23497945 -26.3046932 52.02109232 -22.21359253 42.80773926 C-20.97115086 40.01004564 -19.72814764 37.21260242 -18.48486328 34.4152832 C-18.09323502 33.53409821 -17.70160675 32.65291321 -17.29811096 31.74502563 C-16.53441416 30.02711177 -15.77045472 28.30931462 -15.00621033 26.59164429 C-13.11884146 22.34862738 -11.23724127 18.10319855 -9.36547852 13.85327148 C-8.995578 13.01535568 -8.62567749 12.17743988 -8.24456787 11.31413269 C-7.54283058 9.72408194 -6.84291231 8.13322679 -6.14508057 6.54145813 C-3.31646177 0.14028516 -3.31646177 0.14028516 0 0 Z M10.31616211 28.11352539 C7.91195038 33.8970174 5.50936312 39.68118225 3.10791016 45.46582031 C2.29057711 47.43407516 1.47287075 49.40217501 0.65478516 51.37011719 C-0.52026719 54.19694111 -1.69398085 57.02431759 -2.86743164 59.85180664 C-3.2341246 60.73314774 -3.60081757 61.61448883 -3.97862244 62.52253723 C-4.31889969 63.34316147 -4.65917694 64.16378571 -5.00976562 65.00927734 C-5.30954819 65.7309761 -5.60933075 66.45267487 -5.91819763 67.19624329 C-6.56406966 68.81360715 -7.1331096 70.46134051 -7.68383789 72.11352539 C4.52616211 72.11352539 16.73616211 72.11352539 29.31616211 72.11352539 C25.39005427 61.64390447 21.39001195 51.35137243 16.94116211 41.11352539 C16.39003184 39.83763443 15.83924975 38.56159301 15.28881836 37.28540039 C13.96798358 34.22662512 12.64375484 31.16937202 11.31616211 28.11352539 C10.98616211 28.11352539 10.65616211 28.11352539 10.31616211 28.11352539 Z " fill="#C61E85" transform="translate(229.683837890625,90.886474609375)"/>
<path d="M0 0 C4.89690688 4.19833683 4.89690688 4.19833683 6.890625 6.68359375 C6.890625 10.68359375 6.890625 10.68359375 5.51367188 12.42285156 C4.88525391 12.98842773 4.25683594 13.55400391 3.609375 14.13671875 C2.93261719 14.75546875 2.25585938 15.37421875 1.55859375 16.01171875 C0.84316406 16.6459375 0.12773437 17.28015625 -0.609375 17.93359375 C-1.32480469 18.58328125 -2.04023438 19.23296875 -2.77734375 19.90234375 C-4.54612908 21.50604245 -6.32343908 23.0990506 -8.109375 24.68359375 C-12.20082392 22.7029752 -15.644026 20.15368502 -19.28125 17.4375 C-25.64366582 13.49174764 -31.48041948 12.14590181 -38.921875 12.24609375 C-39.70723633 12.25294189 -40.49259766 12.25979004 -41.30175781 12.2668457 C-50.9039894 12.53050221 -58.05378457 15.17074105 -65.109375 21.68359375 C-65.769375 21.68359375 -66.429375 21.68359375 -67.109375 21.68359375 C-67.38652344 22.24046875 -67.66367188 22.79734375 -67.94921875 23.37109375 C-68.74565121 24.95859548 -69.55082222 26.54173415 -70.36328125 28.12109375 C-70.79511719 28.96671875 -71.22695312 29.81234375 -71.671875 30.68359375 C-72.10628906 31.52921875 -72.54070312 32.37484375 -72.98828125 33.24609375 C-76.94169662 41.84167282 -76.4920242 54.74884833 -73.671875 63.68359375 C-69.75809584 72.60975674 -63.16802326 78.86317481 -54.37109375 82.84375 C-44.60609931 86.46978421 -32.03420225 86.0455428 -22.48828125 81.96484375 C-15.79016824 78.39424188 -15.79016824 78.39424188 -11.109375 72.68359375 C-7.66566554 73.27194952 -5.94444426 74.44486368 -3.4375 76.84375 C-2.77363281 77.47216797 -2.10976562 78.10058594 -1.42578125 78.74804688 C-0.74386719 79.40740234 -0.06195313 80.06675781 0.640625 80.74609375 C1.33800781 81.40931641 2.03539062 82.07253906 2.75390625 82.75585938 C4.47247249 84.3920286 6.18430149 86.0346763 7.890625 87.68359375 C2.38240501 98.95528564 -8.94083229 103.42052742 -20.04296875 107.85546875 C-37.26199508 113.1536307 -57.92717276 110.46463947 -73.859375 102.62109375 C-89.18512916 93.65733171 -98.33121473 81.32984267 -103.43359375 64.359375 C-104.34942378 60.73311159 -104.86399899 57.42557793 -105.109375 53.68359375 C-105.1609375 53.04808594 -105.2125 52.41257812 -105.265625 51.7578125 C-106.00062306 35.49598035 -100.25406567 19.450022 -89.734375 7.12109375 C-66.47065038 -16.6206526 -26.70672255 -19.89583728 0 0 Z " fill="#C62086" transform="translate(166.109375,101.31640625)"/>
<path d="M0 0 C34.32 0 68.64 0 104 0 C104 7.26 104 14.52 104 22 C103.505 22.495 103.505 22.495 103 23 C90.79 23 78.58 23 66 23 C66 54.35 66 85.7 66 118 C56.76 118 47.52 118 38 118 C38 86.65 38 55.3 38 23 C25.46 23 12.92 23 0 23 C0 15.41 0 7.82 0 0 Z " fill="#C62086" transform="translate(490,91)"/>
<path d="M0 0 C6.50533596 6.27893216 10.64737107 14.23587323 11.203125 23.3203125 C11.36653305 36.58359954 9.28517405 45.97815098 0 56 C-10.29157274 64.54776616 -21.83474227 67.1819184 -35 66 C-46.09181027 64.07098952 -55.50253106 58.16576285 -62 49 C-67.46337212 40.35108803 -69.34000516 30.31768445 -67.5 20.26953125 C-64.79785255 9.13852611 -59.1370146 1.84287241 -50 -5 C-33.32002906 -13.53554375 -14.31704117 -13.08986621 0 0 Z M-52.7578125 7.95703125 C-59.36793582 16.30750105 -59.8861486 24.56073717 -59 35 C-56.96341064 43.12536166 -52.93045074 49.19499918 -45.96484375 53.86328125 C-37.63480005 58.68245166 -28.34886033 59.3906239 -19.00390625 57.34375 C-10.53637888 54.61910874 -4.45095046 50.101687 -0.0625 42.3125 C3.81133013 33.63249418 3.76118111 24.87350167 1.1328125 15.828125 C-1.85773703 8.3620634 -6.63211986 3.44308219 -13.81640625 -0.0703125 C-27.75159187 -6.00336112 -42.53033477 -3.42956062 -52.7578125 7.95703125 Z " fill="#5B86C7" transform="translate(764,262)"/>
<path d="M0 0 C1.20732878 1.16733445 2.39693442 2.35346345 3.5625 3.5625 C4.47 4.47 5.3775 5.3775 6.3125 6.3125 C13.06964937 16.07282687 14.03478327 27.01012568 12.5625 38.5625 C9.99215979 48.8779804 4.42043907 56.38489576 -4.5625 61.9375 C-14.94041401 67.87247319 -26.87837736 69.54235142 -38.5625 66.5 C-50.20680593 62.39802859 -57.84243748 55.30432627 -63.55859375 44.4296875 C-67.70214237 34.6358453 -67.0038661 23.72348929 -63.46875 13.859375 C-58.53093318 2.98283254 -50.43718366 -3.17459846 -39.4375 -7.4375 C-25.773569 -11.58445528 -11.03393367 -9.33640541 0 0 Z M-49.4375 7.5625 C-56.51105295 16.1922346 -58.30251112 24.54802503 -57.4375 35.5625 C-56.24155816 43.62210802 -51.54285307 49.37836884 -45.4375 54.5625 C-37.28777812 59.69636435 -28.89906416 60.73964296 -19.4375 59.5625 C-12.21113348 57.86570123 -6.25196818 54.22217482 -1.4375 48.5625 C4.04705498 39.70808163 6.23692565 31.00663332 3.9140625 20.6796875 C1.06130879 11.92636629 -3.34591196 5.9167 -11.5625 1.625 C-24.19515846 -4.32808985 -39.41567759 -2.35179213 -49.4375 7.5625 Z " fill="#5A86C7" transform="translate(611.4375,260.4375)"/>
<path d="M0 0 C2.97 0 5.94 0 9 0 C9.33 14.19 9.66 28.38 10 43 C12.825625 40.195 15.65125 37.39 18.5625 34.5 C19.43849854 33.63310547 20.31449707 32.76621094 21.21704102 31.87304688 C25.39270966 27.71199661 29.40355273 23.47927776 33.25073242 19.01367188 C36.52487362 15.24463955 39.92420074 11.60708546 43.375 8 C44.07882812 7.22527344 44.78265625 6.45054687 45.5078125 5.65234375 C50.73170642 0.24732942 50.73170642 0.24732942 54.54394531 -0.49609375 C57.0390625 -0.5 57.0390625 -0.5 61 0 C59.68516427 2.91834217 58.28366724 4.94920929 55.98828125 7.171875 C55.39861572 7.74993896 54.8089502 8.32800293 54.20141602 8.92358398 C53.57807373 9.52630127 52.95473145 10.12901855 52.3125 10.75 C47.8682297 15.11314786 43.55838358 19.48955588 39.53125 24.24609375 C36.84764062 27.31992184 33.92366406 30.15631459 31 33 C32.36266644 37.03805866 34.1409151 39.54368118 37.0625 42.625 C40.24737819 46.06304816 43.30835662 49.53899223 46.25 53.1875 C50.64212856 58.62500197 55.21531264 63.89230504 59.83496094 69.13745117 C64 73.89421388 64 73.89421388 64 75 C55.70948155 76.05091079 55.70948155 76.05091079 52.09375 73.828125 C50.23262979 71.98456253 48.61837924 70.06073623 47 68 C46.33742188 67.18917969 45.67484375 66.37835938 44.9921875 65.54296875 C43.50386074 63.72123546 42.02372967 61.8927834 40.55078125 60.05859375 C37.1474616 55.97773726 33.54405427 52.10333169 29.89770508 48.23974609 C26.09757356 44.19514712 26.09757356 44.19514712 25 42 C18.92984876 44.68182454 13.15774999 49.07196292 10 55 C8.41086957 61.53839462 8.71881279 68.3234385 9 75 C6.03 75 3.06 75 0 75 C0 50.25 0 25.5 0 0 Z " fill="#5E89C8" transform="translate(408,252)"/>
<path d="M0 0 C4.23301121 2.82200747 7.17159664 5.95228992 8.8125 10.875 C10.29974702 21.00334045 6.49012779 29.67308909 2.8125 38.875 C2.49732422 39.6700293 2.18214844 40.46505859 1.85742188 41.28417969 C-3.80173495 55.48923495 -3.80173495 55.48923495 -5.1875 56.875 C-8.05017567 56.94825168 -10.888219 56.96738205 -13.75 56.9375 C-14.55630859 56.93298828 -15.36261719 56.92847656 -16.19335938 56.92382812 C-18.19143756 56.91200518 -20.18947783 56.89406914 -22.1875 56.875 C-20.57699895 47.65122123 -17.90611481 38.81945024 -15.1875 29.875 C-15.80238281 29.59527344 -16.41726563 29.31554687 -17.05078125 29.02734375 C-20.86249962 26.97166382 -22.84151865 23.91294404 -24.1875 19.875 C-24.71992085 13.592434 -23.94351912 9.05531994 -20.1875 3.875 C-13.93173451 -1.10407866 -7.5983893 -2.68178446 0 0 Z " fill="#C72287" transform="translate(471.1875,83.125)"/>
<path d="M0 0 C20.13 0 40.26 0 61 0 C61 2.31 61 4.62 61 7 C60.67 7.33 60.34 7.66 60 8 C51.75 8 43.5 8 35 8 C35 30.11 35 52.22 35 75 C32.03 75 29.06 75 26 75 C26 52.89 26 30.78 26 8 C17.42 8 8.84 8 0 8 C0 5.36 0 2.72 0 0 Z " fill="#628CCA" transform="translate(630,252)"/>
<path d="M0 0 C3.17851135 -0.63249974 5.84022291 -0.80054539 9 0 C11.87690745 2.85801151 13.53748379 6.28860802 15.375 9.875 C16.47884041 11.88631118 17.58433796 13.8967137 18.69140625 15.90625 C19.23812988 16.92332031 19.78485352 17.94039063 20.34814453 18.98828125 C22.84841219 23.54685379 25.57080467 27.95887672 28.3125 32.375 C29.22573699 33.86168652 30.13854666 35.34863569 31.05078125 36.8359375 C31.69402344 37.88007813 32.33726562 38.92421875 33 40 C35.96963951 37.3686157 37.77271517 34.2874002 39.80078125 30.8984375 C40.15963913 30.30253815 40.51849701 29.70663879 40.88822937 29.09268188 C42.03378624 27.1892344 43.1735193 25.28238856 44.3125 23.375 C47.18890605 18.57130921 50.08426681 13.77993085 53 9 C53.56976562 8.04778564 54.13953125 7.09557129 54.7265625 6.11450195 C55.23574219 5.2968335 55.74492188 4.47916504 56.26953125 3.63671875 C56.91112183 2.58810669 56.91112183 2.58810669 57.56567383 1.51831055 C59 0 59 0 61.1315918 -0.54370117 C63.375 -0.5625 63.375 -0.5625 67 0 C65.26427112 5.0255406 62.49613622 9.35645009 59.75 13.875 C58.97112427 15.1906897 58.97112427 15.1906897 58.17651367 16.53295898 C55.32534119 21.318117 52.36872044 25.94829179 49.12890625 30.48046875 C38.92238039 45.17254174 36.90352379 57.22435483 38 75 C35.03 75 32.06 75 29 75 C29.05349609 74.31824707 29.10699219 73.63649414 29.16210938 72.93408203 C30.39769807 53.02848238 25.51576902 41.12291255 14.12255859 25.05517578 C10.84788062 20.3416584 7.92426515 15.43562634 5 10.5 C4.49041748 9.66283447 3.98083496 8.82566895 3.45581055 7.96313477 C2.99601807 7.20186279 2.53622559 6.44059082 2.0625 5.65625 C1.66160156 4.99431641 1.26070313 4.33238281 0.84765625 3.65039062 C0 2 0 2 0 0 Z " fill="#5E88C8" transform="translate(473,252)"/>
</svg>
