<svg id="グループ化_292" data-name="グループ化 292" xmlns="http://www.w3.org/2000/svg" viewBox="0 0 230.92 50.841">
  <defs>
    <style>
      .cls-1 {
        fill: #e4007f;
      }

      .cls-2 {
        fill: #0075bf;
      }
    </style>
  </defs>
  <path id="パス_176" data-name="パス 176" class="cls-1" d="M7.276,16.1c0,7.185,3.638,11.641,11.823,11.641a25,25,0,0,0,8-1.273l.728,4.366A57.139,57.139,0,0,1,19.1,32.2c-13.46,0-19.1-6-19.1-16.1C0,7.731,6.73,0,19.1,0a60.115,60.115,0,0,1,8.458.909l-.819,4.638a23.245,23.245,0,0,0-7.731-1.273C10.823,4.275,7.276,9,7.276,16.1"/>
  <path id="パス_177" data-name="パス 177" class="cls-1" d="M61.657,31.859h6.548L55.2.3h-7L35.1,31.859h5.821l2.638-6.821h15.37ZM45.377,20.491l6-15.643,5.912,15.643Z" transform="translate(-3.177 -0.027)"/>
  <path id="パス_178" data-name="パス 178" class="cls-1" d="M181.366,31.859h6.548L174.909.3h-7L154.9,31.859h5.912l2.638-6.821h15.37ZM165.177,20.491l6-15.643,5.912,15.643Z" transform="translate(-14.02 -0.027)"/>
  <path id="パス_179" data-name="パス 179" class="cls-1" d="M95.609,31.859h7.549V.3H97.792V24.856L83.422.3H75.6V31.859h5.366V7.03Z" transform="translate(-6.842 -0.027)"/>
  <path id="パス_180" data-name="パス 180" class="cls-1" d="M132.782,23.674,138.875,7.03l3.547,24.829h5.639L143.6.3h-7.094l-6.185,17.008L124.051.3h-7.094L112.5,31.859h5.639L121.686,7.03l6.094,16.644Z" transform="translate(-10.182 -0.027)"/>
  <rect id="長方形_210" data-name="長方形 210" class="cls-1" width="5.912" height="31.559" transform="translate(177.533 0.273)"/>
  <path id="パス_181" data-name="パス 181" class="cls-1" d="M201.5,15.489l13.1,16.28h8.185l-14.825-16.28L221.873.3h-7.367Z" transform="translate(-18.237 -0.027)"/>
  <path id="パス_182" data-name="パス 182" class="cls-1" d="M251.728,4.575V.391L229.9.3V31.859h21.828V27.676H235.812V17.489H249v-4H235.812V4.575Z" transform="translate(-20.808 -0.027)"/>
  <path id="パス_183" data-name="パス 183" class="cls-2" d="M107.186,44.264h-3.911v10.1H101.82v-10.1H98V42.9h9.186Z" transform="translate(-8.87 -3.883)"/>
  <path id="パス_184" data-name="パス 184" class="cls-2" d="M132.531,54.36h-1.819l-4.366-5.093-1.091,1.182V54.36H123.8V42.9h1.455v6l5.366-6h1.728l-4.911,5.366Z" transform="translate(-11.205 -3.883)"/>
  <path id="パス_185" data-name="パス 185" class="cls-2" d="M142.695,42.9l-3.82,6.457v5H137.42v-4.82L133.6,42.9h1.637l2.91,5.093,3-5.093Z" transform="translate(-12.092 -3.883)"/>
  <path id="パス_186" data-name="パス 186" class="cls-2" d="M118.05,50.885a3.951,3.951,0,0,1-1.091,1.546,3.815,3.815,0,0,1-1.273.819,4.017,4.017,0,0,1-2.91,0,5.157,5.157,0,0,1-1.182-.728,5.4,5.4,0,0,1-1.182-1.637,5.5,5.5,0,0,1-.364-2.183,5.336,5.336,0,0,1,.364-2.092,5.161,5.161,0,0,1,1.091-1.637,3.815,3.815,0,0,1,1.273-.819,4.017,4.017,0,0,1,2.91,0,5.157,5.157,0,0,1,1.182.728A4.224,4.224,0,0,1,118.05,46.7a6.114,6.114,0,0,1,.364,2.183,3.917,3.917,0,0,1-.364,2m1.455-4.729a5.78,5.78,0,0,0-1.273-2,4.309,4.309,0,0,0-1.728-1.091,5.8,5.8,0,0,0-2.183-.364,6.333,6.333,0,0,0-2.274.455,4.394,4.394,0,0,0-1.819,1.273,5.418,5.418,0,0,0-1.273,1.91A6.832,6.832,0,0,0,108.5,48.7a6.22,6.22,0,0,0,.546,2.638,5.157,5.157,0,0,0,1.364,1.91,6.918,6.918,0,0,0,1.728,1.091,6.2,6.2,0,0,0,4.184,0,5.685,5.685,0,0,0,1.819-1.182,5.019,5.019,0,0,0,1.273-1.91,5.785,5.785,0,0,0,.455-2.547,4.85,4.85,0,0,0-.364-2.547" transform="translate(-9.82 -3.865)"/>
  <path id="パス_187" data-name="パス 187" class="cls-2" d="M153.35,50.885a3.951,3.951,0,0,1-1.091,1.546,3.815,3.815,0,0,1-1.273.819,4.017,4.017,0,0,1-2.91,0,5.157,5.157,0,0,1-1.182-.728,5.4,5.4,0,0,1-1.182-1.637,5.5,5.5,0,0,1-.364-2.183,5.336,5.336,0,0,1,.364-2.092,5.161,5.161,0,0,1,1.091-1.637,3.815,3.815,0,0,1,1.273-.819,4.017,4.017,0,0,1,2.91,0,5.157,5.157,0,0,1,1.182.728A4.224,4.224,0,0,1,153.35,46.7a6.114,6.114,0,0,1,.364,2.183,3.917,3.917,0,0,1-.364,2m1.455-4.729a5.781,5.781,0,0,0-1.273-2,4.309,4.309,0,0,0-1.728-1.091,5.8,5.8,0,0,0-2.183-.364,6.333,6.333,0,0,0-2.274.455,4.394,4.394,0,0,0-1.819,1.273,5.417,5.417,0,0,0-1.273,1.91A6.832,6.832,0,0,0,143.8,48.7a6.22,6.22,0,0,0,.546,2.638,5.157,5.157,0,0,0,1.364,1.91,6.918,6.918,0,0,0,1.728,1.091,6.2,6.2,0,0,0,4.184,0,5.685,5.685,0,0,0,1.819-1.182,5.019,5.019,0,0,0,1.273-1.91,5.785,5.785,0,0,0,.455-2.547,4.851,4.851,0,0,0-.364-2.547" transform="translate(-13.015 -3.865)"/>
</svg>
